name ../IE_Laxity/ie_75.mot
datacolumns  10
datarows 40
range   21.00000000 21.39000000
cursor 1.0 1.0 0.0
keys m_key
wrap
enforce_loops no
enforce_constraints no
calc_derivatives -1.000000
event_color 0.000000 0.000000 0.000000
endheader
            time femur_r_force_vx femur_r_force_vy femur_r_force_vz femur_r_force_px femur_r_force_py femur_r_force_pz femur_r_torque_x femur_r_torque_y femur_r_torque_z 
     21.00000000       0.00000000       0.00000000       0.00000000      -0.06780825      -0.46560544       0.00000000       4.25529460       1.14020275       0.00000000 
     21.01000000       0.00000000       0.00000000       0.00000000      -0.06780825      -0.46560544       0.00000000       4.26373533       1.14246444       0.00000000 
     21.02000000       0.00000000       0.00000000       0.00000000      -0.06780825      -0.46560544       0.00000000       4.27212182       1.14471159       0.00000000 
     21.03000000       0.00000000       0.00000000       0.00000000      -0.06780825      -0.46560544       0.00000000       4.28045381       1.14694414       0.00000000 
     21.04000000       0.00000000       0.00000000       0.00000000      -0.06780825      -0.46560544       0.00000000       4.28873107       1.14916203       0.00000000 
     21.05000000       0.00000000       0.00000000       0.00000000      -0.06780825      -0.46560544       0.00000000       4.29695335       1.15136518       0.00000000 
     21.06000000       0.00000000       0.00000000       0.00000000      -0.06780825      -0.46560544       0.00000000       4.30512042       1.15355354       0.00000000 
     21.07000000       0.00000000       0.00000000       0.00000000      -0.06780825      -0.46560544       0.00000000       4.31323202       1.15572704       0.00000000 
     21.08000000       0.00000000       0.00000000       0.00000000      -0.06780825      -0.46560544       0.00000000       4.32128792       1.15788561       0.00000000 
     21.09000000       0.00000000       0.00000000       0.00000000      -0.06780825      -0.46560544       0.00000000       4.32928789       1.16002919       0.00000000 
     21.10000000       0.00000000       0.00000000       0.00000000      -0.06780825      -0.46560544       0.00000000       4.33723170       1.16215773       0.00000000 
     21.11000000       0.00000000       0.00000000       0.00000000      -0.06780825      -0.46560544       0.00000000       4.34511910       1.16427115       0.00000000 
     21.12000000       0.00000000       0.00000000       0.00000000      -0.06780825      -0.46560544       0.00000000       4.35294987       1.16636940       0.00000000 
     21.13000000       0.00000000       0.00000000       0.00000000      -0.06780825      -0.46560544       0.00000000       4.36072377       1.16845241       0.00000000 
     21.14000000       0.00000000       0.00000000       0.00000000      -0.06780825      -0.46560544       0.00000000       4.36844059       1.17052013       0.00000000 
     21.15000000       0.00000000       0.00000000       0.00000000      -0.06780825      -0.46560544       0.00000000       4.37610009       1.17257248       0.00000000 
     21.16000000       0.00000000       0.00000000       0.00000000      -0.06780825      -0.46560544       0.00000000       4.38370204       1.17460942       0.00000000 
     21.17000000       0.00000000       0.00000000       0.00000000      -0.06780825      -0.46560544       0.00000000       4.39124623       1.17663088       0.00000000 
     21.18000000       0.00000000       0.00000000       0.00000000      -0.06780825      -0.46560544       0.00000000       4.39873244       1.17863680       0.00000000 
     21.19000000       0.00000000       0.00000000       0.00000000      -0.06780825      -0.46560544       0.00000000       4.40616044       1.18062713       0.00000000 
     21.20000000       0.00000000       0.00000000       0.00000000      -0.06780825      -0.46560544       0.00000000       4.41353001       1.18260180       0.00000000 
     21.21000000       0.00000000       0.00000000       0.00000000      -0.06780825      -0.46560544       0.00000000       4.42084095       1.18456076       0.00000000 
     21.22000000       0.00000000       0.00000000       0.00000000      -0.06780825      -0.46560544       0.00000000       4.42809303       1.18650395       0.00000000 
     21.23000000       0.00000000       0.00000000       0.00000000      -0.06780825      -0.46560544       0.00000000       4.43528605       1.18843131       0.00000000 
     21.24000000       0.00000000       0.00000000       0.00000000      -0.06780825      -0.46560544       0.00000000       4.44241978       1.19034279       0.00000000 
     21.25000000       0.00000000       0.00000000       0.00000000      -0.06780825      -0.46560544       0.00000000       4.44949403       1.19223833       0.00000000 
     21.26000000       0.00000000       0.00000000       0.00000000      -0.06780825      -0.46560544       0.00000000       4.45650858       1.19411788       0.00000000 
     21.27000000       0.00000000       0.00000000       0.00000000      -0.06780825      -0.46560544       0.00000000       4.46346324       1.19598137       0.00000000 
     21.28000000       0.00000000       0.00000000       0.00000000      -0.06780825      -0.46560544       0.00000000       4.47035778       1.19782876       0.00000000 
     21.29000000       0.00000000       0.00000000       0.00000000      -0.06780825      -0.46560544       0.00000000       4.47719202       1.19965999       0.00000000 
     21.30000000       0.00000000       0.00000000       0.00000000      -0.06780825      -0.46560544       0.00000000       4.48396576       1.20147500       0.00000000 
     21.31000000       0.00000000       0.00000000       0.00000000      -0.06780825      -0.46560544       0.00000000       4.49067878       1.20327375       0.00000000 
     21.32000000       0.00000000       0.00000000       0.00000000      -0.06780825      -0.46560544       0.00000000       4.49733090       1.20505618       0.00000000 
     21.33000000       0.00000000       0.00000000       0.00000000      -0.06780825      -0.46560544       0.00000000       4.50392193       1.20682224       0.00000000 
     21.34000000       0.00000000       0.00000000       0.00000000      -0.06780825      -0.46560544       0.00000000       4.51045166       1.20857188       0.00000000 
     21.35000000       0.00000000       0.00000000       0.00000000      -0.06780825      -0.46560544       0.00000000       4.51691991       1.21030504       0.00000000 
     21.36000000       0.00000000       0.00000000       0.00000000      -0.06780825      -0.46560544       0.00000000       4.52332648       1.21202168       0.00000000 
     21.37000000       0.00000000       0.00000000       0.00000000      -0.06780825      -0.46560544       0.00000000       4.52967120       1.21372174       0.00000000 
     21.38000000       0.00000000       0.00000000       0.00000000      -0.06780825      -0.46560544       0.00000000       4.53595386       1.21540517       0.00000000 
     21.39000000       0.00000000       0.00000000       0.00000000      -0.06780825      -0.46560544       0.00000000       4.54217430       1.21707194       0.00000000 
